<svg width="32" height="32" viewBox="0 0 32 32" fill="none" xmlns="http://www.w3.org/2000/svg">
<path d="M26 0H6C2.68629 0 0 2.68629 0 6V26C0 29.3137 2.68629 32 6 32H26C29.3137 32 32 29.3137 32 26V6C32 2.68629 29.3137 0 26 0Z" fill="white"/>
<path d="M15.5 23L9 16L7.5 14L8 11.5L10 9.5L13 9L15.5 11L16.5 10.5L20 8.5L23 10L24.5 12.5L23.5 15.5L15.5 23Z" fill="#572EE5"/>
<path d="M16.277 9.49709C17.2351 8.53854 18.5348 8 19.8901 8C21.2454 8 22.5451 8.53854 23.5032 9.49709C24.4615 10.4549 25 11.7546 25 13.1099C25 14.4652 24.4615 15.7649 23.503 16.7229L16.5555 23.6704C16.2486 23.9773 15.751 23.9773 15.4441 23.6704L8.49653 16.7229C6.50115 14.7275 6.50116 11.4923 8.49654 9.49695C10.4919 7.50158 13.7271 7.50158 15.7224 9.49695L15.9998 9.7743L16.277 9.49709Z" fill="#572EE5"/>
</svg>
